<svg width="10" height="10" viewBox="0 0 10 10" fill="none" xmlns="http://www.w3.org/2000/svg">
<path d="M5.00065 9.47982C7.47443 9.47982 9.47982 7.47443 9.47982 5.00065C9.47982 2.52688 7.47443 0.521484 5.00065 0.521484C2.52688 0.521484 0.521484 2.52688 0.521484 5.00065C0.521484 7.47443 2.52688 9.47982 5.00065 9.47982Z" stroke="black" stroke-width="0.5" stroke-linecap="round" stroke-linejoin="round"/>
<path d="M2.50195 3.24609C2.67454 3.24609 2.81445 3.10618 2.81445 2.93359C2.81445 2.761 2.67454 2.62109 2.50195 2.62109C2.32936 2.62109 2.18945 2.761 2.18945 2.93359C2.18945 3.10618 2.32936 3.24609 2.50195 3.24609Z" stroke="black" stroke-width="0.5" stroke-linecap="round" stroke-linejoin="round"/>
<path d="M2.72327 2.71037C3.31075 2.12669 4.1003 1.79146 4.92825 1.77414C5.75621 1.75683 6.55908 2.05876 7.17045 2.61736C7.78182 3.17596 8.15481 3.94839 8.2121 4.77455C8.2694 5.6007 8.0066 6.41722 7.47819 7.05486C6.94978 7.69251 6.19627 8.10238 5.37385 8.19952C4.55143 8.29665 3.72316 8.07361 3.06074 7.57662C2.39831 7.07963 1.95252 6.3468 1.81576 5.53003C1.67901 4.71327 1.86177 3.8752 2.32618 3.18953" stroke="black" stroke-width="0.5" stroke-linecap="round" stroke-linejoin="round"/>
<path d="M4.01539 3.66797C4.19198 3.66813 4.3613 3.73836 4.48617 3.86323C4.61104 3.9881 4.68127 4.15742 4.68143 4.33401C4.68132 4.51064 4.61112 4.68001 4.48624 4.80493C4.36137 4.92984 4.19202 5.0001 4.01539 5.00026C4.19198 5.00043 4.3613 5.07065 4.48617 5.19552C4.61104 5.32039 4.68127 5.48971 4.68143 5.6663C4.68127 5.8429 4.61104 6.01221 4.48617 6.13708C4.3613 6.26195 4.19198 6.33218 4.01539 6.33234L3.74477 6.33255C3.29872 6.33255 3.10018 6.26172 2.91602 6.10755M5.31685 5.44964C5.32041 5.68142 5.41499 5.90251 5.58016 6.06517C5.74533 6.22782 5.96785 6.31899 6.19966 6.31899C6.43148 6.31899 6.65399 6.22782 6.81916 6.06517C6.98434 5.90251 7.07891 5.68142 7.08247 5.44964V4.54984C7.07891 4.31806 6.98434 4.09697 6.81916 3.93431C6.65399 3.77166 6.43148 3.68049 6.19966 3.68049C5.96785 3.68049 5.74533 3.77166 5.58016 3.93431C5.41499 4.09697 5.32041 4.31806 5.31685 4.54984V5.44964Z" stroke="black" stroke-width="0.5" stroke-linecap="round" stroke-linejoin="round"/>
<path d="M2.91602 3.89049C3.10039 3.73674 3.29935 3.66674 3.74518 3.66799L4.01602 3.66861M3.33685 5.0009H4.0156" stroke="black" stroke-width="0.5" stroke-linecap="round" stroke-linejoin="round"/>
</svg>
