<svg width="50" height="50" viewBox="0 0 50 50" fill="none" xmlns="http://www.w3.org/2000/svg">
<circle cx="25" cy="25" r="24" fill="white" stroke="#83A529" stroke-width="2" stroke-dasharray="2 2"/>
<mask id="path-2-inside-1_433_1980" fill="white">
<path fill-rule="evenodd" clip-rule="evenodd" d="M34.1219 19.3352L25.8361 26.197C25.6006 26.3921 25.3044 26.4988 24.9987 26.4988C24.6929 26.4988 24.3968 26.3921 24.1613 26.197L15.8794 19.3352C15.835 19.469 15.8124 19.6091 15.8125 19.75V30.25C15.8125 30.5981 15.9508 30.9319 16.1969 31.1781C16.4431 31.4242 16.7769 31.5625 17.125 31.5625H32.875C33.2231 31.5625 33.5569 31.4242 33.8031 31.1781C34.0492 30.9319 34.1875 30.5981 34.1875 30.25V19.75C34.188 19.6091 34.1659 19.4691 34.1219 19.3352ZM17.125 17.125H32.875C33.5712 17.125 34.2389 17.4016 34.7312 17.8938C35.2234 18.3861 35.5 19.0538 35.5 19.75V30.25C35.5 30.9462 35.2234 31.6139 34.7312 32.1062C34.2389 32.5984 33.5712 32.875 32.875 32.875H17.125C16.4288 32.875 15.7611 32.5984 15.2688 32.1062C14.7766 31.6139 14.5 30.9462 14.5 30.25V19.75C14.5 19.0538 14.7766 18.3861 15.2688 17.8938C15.7611 17.4016 16.4288 17.125 17.125 17.125ZM16.8494 18.4375L24.1679 24.4789C24.4023 24.6725 24.6966 24.7788 25.0006 24.7795C25.3046 24.7802 25.5994 24.6754 25.8347 24.4829L33.2267 18.4375H16.8494Z"/>
</mask>
<path fill-rule="evenodd" clip-rule="evenodd" d="M34.1219 19.3352L25.8361 26.197C25.6006 26.3921 25.3044 26.4988 24.9987 26.4988C24.6929 26.4988 24.3968 26.3921 24.1613 26.197L15.8794 19.3352C15.835 19.469 15.8124 19.6091 15.8125 19.75V30.25C15.8125 30.5981 15.9508 30.9319 16.1969 31.1781C16.4431 31.4242 16.7769 31.5625 17.125 31.5625H32.875C33.2231 31.5625 33.5569 31.4242 33.8031 31.1781C34.0492 30.9319 34.1875 30.5981 34.1875 30.25V19.75C34.188 19.6091 34.1659 19.4691 34.1219 19.3352ZM17.125 17.125H32.875C33.5712 17.125 34.2389 17.4016 34.7312 17.8938C35.2234 18.3861 35.5 19.0538 35.5 19.75V30.25C35.5 30.9462 35.2234 31.6139 34.7312 32.1062C34.2389 32.5984 33.5712 32.875 32.875 32.875H17.125C16.4288 32.875 15.7611 32.5984 15.2688 32.1062C14.7766 31.6139 14.5 30.9462 14.5 30.25V19.75C14.5 19.0538 14.7766 18.3861 15.2688 17.8938C15.7611 17.4016 16.4288 17.125 17.125 17.125ZM16.8494 18.4375L24.1679 24.4789C24.4023 24.6725 24.6966 24.7788 25.0006 24.7795C25.3046 24.7802 25.5994 24.6754 25.8347 24.4829L33.2267 18.4375H16.8494Z" fill="#83A529"/>
<path d="M34.1219 19.3352L36.0219 18.7107L35.1057 15.9237L32.8462 17.7949L34.1219 19.3352ZM25.8361 26.197L24.5604 24.6566L24.5601 24.6569L25.8361 26.197ZM24.1613 26.197L25.4373 24.6569L25.4373 24.6569L24.1613 26.197ZM15.8794 19.3352L17.1554 17.7952L14.9035 15.9294L13.9814 18.7047L15.8794 19.3352ZM15.8125 19.75H17.8125L17.8125 19.7486L15.8125 19.75ZM15.8125 30.25H13.8125H15.8125ZM34.1875 19.75L32.1875 19.7425V19.75H34.1875ZM17.125 17.125V15.125V17.125ZM32.875 17.125V15.125V17.125ZM14.5 30.25H12.5H14.5ZM14.5 19.75H12.5H14.5ZM16.8494 18.4375V16.4375H11.285L15.5761 19.9799L16.8494 18.4375ZM24.1679 24.4789L25.4415 22.9369L25.4411 22.9366L24.1679 24.4789ZM25.8347 24.4829L24.5686 22.9347L24.5684 22.9349L25.8347 24.4829ZM33.2267 18.4375L34.4929 19.9857L38.8314 16.4375H33.2267V18.4375ZM34.1219 19.3352L32.8462 17.7949L24.5604 24.6566L25.8361 26.197L27.1117 27.7374L35.3975 20.8756L34.1219 19.3352ZM25.8361 26.197L24.5601 24.6569C24.6834 24.5547 24.8385 24.4988 24.9987 24.4988V26.4988V28.4988C25.7704 28.4988 26.5178 28.2294 27.1121 27.7371L25.8361 26.197ZM24.9987 26.4988V24.4988C25.1589 24.4988 25.314 24.5547 25.4373 24.6569L24.1613 26.197L22.8853 27.7371C23.4795 28.2294 24.227 28.4988 24.9987 28.4988V26.4988ZM24.1613 26.197L25.4373 24.6569L17.1554 17.7952L15.8794 19.3352L14.6034 20.8753L22.8853 27.7371L24.1613 26.197ZM15.8794 19.3352L13.9814 18.7047C13.8693 19.0423 13.8122 19.3957 13.8125 19.7514L15.8125 19.75L17.8125 19.7486C17.8126 19.8224 17.8007 19.8957 17.7774 19.9658L15.8794 19.3352ZM15.8125 19.75H13.8125V30.25H15.8125H17.8125V19.75H15.8125ZM15.8125 30.25H13.8125C13.8125 31.1285 14.1615 31.9711 14.7827 32.5923L16.1969 31.1781L17.6111 29.7639C17.7401 29.8928 17.8125 30.0677 17.8125 30.25H15.8125ZM16.1969 31.1781L14.7827 32.5923C15.4039 33.2135 16.2465 33.5625 17.125 33.5625V31.5625V29.5625C17.3073 29.5625 17.4822 29.6349 17.6111 29.7639L16.1969 31.1781ZM17.125 31.5625V33.5625H32.875V31.5625V29.5625H17.125V31.5625ZM32.875 31.5625V33.5625C33.7535 33.5625 34.5961 33.2135 35.2173 32.5923L33.8031 31.1781L32.3889 29.7639C32.5178 29.6349 32.6927 29.5625 32.875 29.5625V31.5625ZM33.8031 31.1781L35.2173 32.5923C35.8385 31.9711 36.1875 31.1285 36.1875 30.25H34.1875H32.1875C32.1875 30.0677 32.2599 29.8928 32.3889 29.7639L33.8031 31.1781ZM34.1875 30.25H36.1875V19.75H34.1875H32.1875V30.25H34.1875ZM34.1875 19.75L36.1875 19.7575C36.1888 19.4019 36.1329 19.0485 36.0219 18.7107L34.1219 19.3352L32.2219 19.9598C32.1988 19.8897 32.1872 19.8163 32.1875 19.7425L34.1875 19.75ZM17.125 17.125V19.125H32.875V17.125V15.125H17.125V17.125ZM32.875 17.125V19.125C33.0408 19.125 33.1997 19.1908 33.3169 19.3081L34.7312 17.8938L36.1454 16.4796C35.278 15.6123 34.1016 15.125 32.875 15.125V17.125ZM34.7312 17.8938L33.3169 19.3081C33.4342 19.4253 33.5 19.5842 33.5 19.75H35.5H37.5C37.5 18.5234 37.0127 17.347 36.1454 16.4796L34.7312 17.8938ZM35.5 19.75H33.5V30.25H35.5H37.5V19.75H35.5ZM35.5 30.25H33.5C33.5 30.4158 33.4342 30.5747 33.3169 30.6919L34.7312 32.1062L36.1454 33.5204C37.0127 32.653 37.5 31.4766 37.5 30.25H35.5ZM34.7312 32.1062L33.3169 30.6919C33.1997 30.8092 33.0408 30.875 32.875 30.875V32.875V34.875C34.1016 34.875 35.278 34.3877 36.1454 33.5204L34.7312 32.1062ZM32.875 32.875V30.875H17.125V32.875V34.875H32.875V32.875ZM17.125 32.875V30.875C16.9592 30.875 16.8003 30.8092 16.6831 30.6919L15.2688 32.1062L13.8546 33.5204C14.722 34.3877 15.8984 34.875 17.125 34.875V32.875ZM15.2688 32.1062L16.6831 30.6919C16.5658 30.5747 16.5 30.4158 16.5 30.25H14.5H12.5C12.5 31.4766 12.9873 32.653 13.8546 33.5204L15.2688 32.1062ZM14.5 30.25H16.5V19.75H14.5H12.5V30.25H14.5ZM14.5 19.75H16.5C16.5 19.5842 16.5658 19.4253 16.6831 19.3081L15.2688 17.8938L13.8546 16.4796C12.9873 17.347 12.5 18.5234 12.5 19.75H14.5ZM15.2688 17.8938L16.6831 19.3081C16.8003 19.1908 16.9592 19.125 17.125 19.125V17.125V15.125C15.8984 15.125 14.722 15.6123 13.8546 16.4796L15.2688 17.8938ZM16.8494 18.4375L15.5761 19.9799L22.8946 26.0213L24.1679 24.4789L25.4411 22.9366L18.1226 16.8951L16.8494 18.4375ZM24.1679 24.4789L22.8942 26.021C23.4858 26.5096 24.2286 26.7777 24.9959 26.7795L25.0006 24.7795L25.0053 22.7795C25.1646 22.7799 25.3187 22.8355 25.4415 22.9369L24.1679 24.4789ZM25.0006 24.7795L24.9959 26.7795C25.7631 26.7813 26.5072 26.5167 27.1011 26.0309L25.8347 24.4829L24.5684 22.9349C24.6917 22.834 24.8461 22.7791 25.0053 22.7795L25.0006 24.7795ZM25.8347 24.4829L27.1009 26.0311L34.4929 19.9857L33.2267 18.4375L31.9606 16.8893L24.5686 22.9347L25.8347 24.4829ZM33.2267 18.4375V16.4375H16.8494V18.4375V20.4375H33.2267V18.4375Z" fill="#83A529" mask="url(#path-2-inside-1_433_1980)"/>
</svg>
