<svg width="50" height="50" viewBox="0 0 50 50" fill="none" xmlns="http://www.w3.org/2000/svg">
<circle cx="25" cy="25" r="24" fill="white" stroke="#5CBABC" stroke-width="2" stroke-dasharray="2 2"/>
<path d="M19.0801 32V29.408L22.7041 25.688C23.3921 24.984 23.9841 24.368 24.4801 23.84C24.9761 23.296 25.3521 22.784 25.6081 22.304C25.8801 21.824 26.0161 21.312 26.0161 20.768C26.0161 19.968 25.7921 19.432 25.3441 19.16C24.8961 18.872 24.1761 18.728 23.1841 18.728C22.7841 18.728 22.3441 18.752 21.8641 18.8C21.3841 18.848 20.9201 18.904 20.4721 18.968C20.0401 19.032 19.6641 19.096 19.3441 19.16L19.1761 16.616C19.5281 16.52 19.9601 16.416 20.4721 16.304C21.0001 16.192 21.5681 16.096 22.1761 16.016C22.8001 15.92 23.4081 15.872 24.0001 15.872C25.7281 15.872 27.0481 16.24 27.9601 16.976C28.8721 17.696 29.3281 18.816 29.3281 20.336C29.3281 21.168 29.2081 21.904 28.9681 22.544C28.7441 23.184 28.3841 23.8 27.8881 24.392C27.4081 24.968 26.7681 25.6 25.9681 26.288L22.8001 29.312H29.5441V32H19.0801Z" fill="black"/>
</svg>
