<svg width="50" height="50" viewBox="0 0 50 50" fill="none" xmlns="http://www.w3.org/2000/svg">
<circle cx="25" cy="25" r="24" fill="white" stroke="#5CBABC" stroke-width="2" stroke-dasharray="2 2"/>
<path d="M24.0721 32.264C23.4801 32.264 22.8561 32.232 22.2001 32.168C21.5601 32.104 20.9441 32.024 20.3521 31.928C19.7761 31.816 19.2961 31.72 18.9121 31.64L19.0561 29.072C19.4401 29.12 19.8961 29.176 20.4241 29.24C20.9681 29.304 21.5201 29.36 22.0801 29.408C22.6561 29.44 23.1841 29.456 23.6641 29.456C24.5761 29.456 25.2561 29.288 25.7041 28.952C26.1521 28.616 26.3761 28.072 26.3761 27.32C26.3761 26.808 26.2721 26.408 26.0641 26.12C25.8721 25.816 25.5841 25.592 25.2001 25.448C24.8321 25.304 24.4001 25.224 23.9041 25.208H20.6401V22.568H23.8321C24.2001 22.568 24.5521 22.488 24.8881 22.328C25.2401 22.168 25.5201 21.936 25.7281 21.632C25.9521 21.328 26.0641 20.96 26.0641 20.528C26.0641 19.856 25.8561 19.384 25.4401 19.112C25.0401 18.824 24.3841 18.68 23.4721 18.68C22.9921 18.68 22.4881 18.704 21.9601 18.752C21.4321 18.8 20.9281 18.856 20.4481 18.92C19.9681 18.968 19.5681 19.024 19.2481 19.088L19.1041 16.568C19.4561 16.472 19.8881 16.376 20.4001 16.28C20.9121 16.168 21.4561 16.08 22.0321 16.016C22.6081 15.936 23.1521 15.896 23.6641 15.896C25.0241 15.896 26.1201 16.04 26.9521 16.328C27.8001 16.6 28.4161 17.056 28.8001 17.696C29.1841 18.32 29.3761 19.144 29.3761 20.168C29.3761 20.728 29.3041 21.2 29.1601 21.584C29.0321 21.968 28.8561 22.296 28.6321 22.568C28.4241 22.84 28.2081 23.064 27.9841 23.24C27.7601 23.4 27.5521 23.544 27.3601 23.672C27.8401 23.896 28.2561 24.144 28.6081 24.416C28.9601 24.688 29.2321 25.048 29.4241 25.496C29.6161 25.944 29.7121 26.544 29.7121 27.296C29.7121 28.496 29.5041 29.464 29.0881 30.2C28.6721 30.92 28.0481 31.448 27.2161 31.784C26.3841 32.104 25.3361 32.264 24.0721 32.264Z" fill="black"/>
</svg>
