<svg width="50" height="50" viewBox="0 0 50 50" fill="none" xmlns="http://www.w3.org/2000/svg">
<circle cx="25" cy="25" r="24" fill="white" stroke="#5CBABC" stroke-width="2" stroke-dasharray="2 2"/>
<path d="M24.4321 32.264C23.8241 32.264 23.1681 32.216 22.4641 32.12C21.7601 32.04 21.0801 31.936 20.4241 31.808C19.7681 31.68 19.2081 31.568 18.7441 31.472L19.0321 29.024C19.4641 29.088 19.9761 29.168 20.5681 29.264C21.1601 29.344 21.7681 29.408 22.3921 29.456C23.0161 29.504 23.5841 29.528 24.0961 29.528C24.9121 29.528 25.5601 29.32 26.0401 28.904C26.5201 28.472 26.7601 27.848 26.7601 27.032C26.7601 26.472 26.6561 26.032 26.4481 25.712C26.2561 25.392 25.9681 25.168 25.5841 25.04C25.2161 24.896 24.7841 24.824 24.2881 24.824C23.9041 24.824 23.5201 24.864 23.1361 24.944C22.7521 25.008 22.3921 25.096 22.0561 25.208C21.7201 25.304 21.4481 25.408 21.2401 25.52L19.0801 25.184L19.4641 16.16H29.3761V19.064H22.0561L21.7441 22.592C21.9681 22.496 22.2481 22.4 22.5841 22.304C22.9201 22.192 23.2801 22.096 23.6641 22.016C24.0641 21.936 24.4481 21.896 24.8161 21.896C25.9201 21.896 26.8561 22.048 27.6241 22.352C28.3921 22.656 28.9761 23.16 29.3761 23.864C29.7921 24.568 30.0001 25.528 30.0001 26.744C30.0001 28.008 29.7681 29.048 29.3041 29.864C28.8561 30.664 28.2161 31.264 27.3841 31.664C26.5681 32.064 25.5841 32.264 24.4321 32.264Z" fill="black"/>
</svg>
