<svg width="10" height="10" viewBox="0 0 10 10" fill="none" xmlns="http://www.w3.org/2000/svg">
<path d="M8.125 9.375C8.81536 9.375 9.375 8.81536 9.375 8.125C9.375 7.43464 8.81536 6.875 8.125 6.875C7.43464 6.875 6.875 7.43464 6.875 8.125C6.875 8.81536 7.43464 9.375 8.125 9.375Z" fill="black"/>
<path d="M3.125 4.0625H3.75V4.6875H3.125V4.0625ZM3.125 5.625H3.75V6.25H3.125V5.625ZM3.125 7.1875H3.75V7.8125H3.125V7.1875ZM4.375 4.0625H6.875V4.6875H4.375V4.0625ZM4.375 5.625H6.875V6.25H4.375V5.625ZM4.375 7.1875H5.625V7.8125H4.375V7.1875Z" fill="black"/>
<path d="M2.1875 8.75V2.1875H3.125V3.125H6.875V2.1875H7.8125V5.625H8.4375V2.1875C8.4375 2.02174 8.37165 1.86277 8.25444 1.74556C8.13723 1.62835 7.97826 1.5625 7.8125 1.5625H6.875V1.25C6.875 1.08424 6.80915 0.925268 6.69194 0.808058C6.57473 0.690848 6.41576 0.625 6.25 0.625H3.75C3.58424 0.625 3.42527 0.690848 3.30806 0.808058C3.19085 0.925268 3.125 1.08424 3.125 1.25V1.5625H2.1875C2.02174 1.5625 1.86277 1.62835 1.74556 1.74556C1.62835 1.86277 1.5625 2.02174 1.5625 2.1875V8.75C1.5625 8.91576 1.62835 9.07473 1.74556 9.19194C1.86277 9.30915 2.02174 9.375 2.1875 9.375H5.625V8.75H2.1875ZM3.75 1.25H6.25V2.5H3.75V1.25Z" fill="black"/>
</svg>
