<svg width="10" height="10" viewBox="0 0 10 10" fill="none" xmlns="http://www.w3.org/2000/svg">
<path d="M6.42761 0.357422V4.64314L8.99189 7.90742C9.1168 8.06549 9.19461 8.25557 9.21639 8.45586C9.23818 8.65614 9.20305 8.8585 9.11505 9.03973C9.02705 9.22096 8.88973 9.3737 8.71886 9.48043C8.548 9.58716 8.3505 9.64355 8.14903 9.64314H1.84903C1.64757 9.64355 1.45007 9.58716 1.2792 9.48043C1.10833 9.3737 0.97102 9.22096 0.883017 9.03973C0.795014 8.8585 0.759889 8.65614 0.781673 8.45586C0.803458 8.25557 0.881269 8.06549 1.00618 7.90742L3.57046 4.64314V0.357422M2.49903 0.357422H7.49903" stroke="black" stroke-width="0.5" stroke-linecap="round" stroke-linejoin="round"/>
</svg>
