<svg width="70" height="70" viewBox="0 0 70 70" fill="none" xmlns="http://www.w3.org/2000/svg">
<circle cx="35" cy="35" r="35" fill="#83A529" fill-opacity="0.43"/>
<path d="M50.7384 45.9478L39.5506 28.7354V20.5074H42.1497V16H26.2795V20.512H28.8999V28.74L17.6908 45.9478C17.2717 46.5888 17.0336 47.3311 17.0017 48.0963C16.9699 48.8615 17.1454 49.621 17.5098 50.2946C17.8742 50.9682 18.4139 51.5308 19.0718 51.9228C19.7296 52.3149 20.4813 52.5218 21.2471 52.5217H47.1684C47.9356 52.5205 48.6883 52.3122 49.3469 51.9187C50.0056 51.5253 50.5458 50.9613 50.9105 50.2863C51.2752 49.6113 51.4508 48.8503 51.419 48.0837C51.3871 47.3172 51.1488 46.5735 50.7293 45.9311L50.7399 45.9478H50.7384ZM49.3612 49.4509C49.1484 49.844 48.8332 50.1724 48.4491 50.4011C48.065 50.6299 47.6261 50.7506 47.1791 50.7504H21.2471C20.7981 50.7511 20.3574 50.6302 19.9715 50.4007C19.5857 50.1712 19.2691 49.8416 19.0554 49.4468C18.8417 49.0519 18.7388 48.6067 18.7576 48.1581C18.7764 47.7095 18.9163 47.2744 19.1623 46.8989L19.1562 46.908L30.6438 29.2559V20.5043H37.7747V29.2604L49.2501 46.9126C49.5088 47.2946 49.6641 47.7663 49.6641 48.2746C49.6641 48.7083 49.5514 49.1161 49.3536 49.4691L49.3597 49.457L49.3612 49.4509Z" fill="black"/>
<path d="M38.9313 34.7949H29.5102L20.9047 48.031C20.8606 48.098 20.8356 48.1758 20.8324 48.256C20.8292 48.3361 20.8479 48.4157 20.8865 48.486L20.885 48.4845C20.961 48.6169 21.101 48.7051 21.2623 48.7067H47.1806C47.2573 48.7071 47.3327 48.6869 47.3989 48.648C47.465 48.6092 47.5195 48.5532 47.5565 48.486L47.558 48.4845C47.5978 48.4147 47.617 48.3351 47.6135 48.2549C47.61 48.1747 47.5839 48.097 47.5382 48.031L47.5397 48.0325L38.9313 34.7949Z" fill="black"/>
</svg>
