<svg width="70" height="70" viewBox="0 0 70 70" fill="none" xmlns="http://www.w3.org/2000/svg">
<circle cx="35" cy="35" r="35" fill="#83A529" fill-opacity="0.43"/>
<path d="M46.9852 39.06C47.4997 39.1889 47.942 39.5169 48.2146 39.9719C48.4873 40.4268 48.5681 40.9715 48.4392 41.486L47.0592 47H48.4992V45C48.4992 44.4696 48.7099 43.9609 49.085 43.5858C49.4601 43.2107 49.9688 43 50.4992 43C51.0296 43 51.5384 43.2107 51.9134 43.5858C52.2885 43.9609 52.4992 44.4696 52.4992 45V47C53.0296 47 53.5384 47.2107 53.9134 47.5858C54.2885 47.9609 54.4992 48.4696 54.4992 49C54.4992 49.5304 54.2885 50.0391 53.9134 50.4142C53.5384 50.7893 53.0296 51 52.4992 51V53C52.4992 53.5304 52.2885 54.0391 51.9134 54.4142C51.5384 54.7893 51.0296 55 50.4992 55C49.9688 55 49.4601 54.7893 49.085 54.4142C48.7099 54.0391 48.4992 53.5304 48.4992 53V51H44.4992C44.1954 50.9999 43.8956 50.9306 43.6226 50.7974C43.3496 50.6642 43.1105 50.4705 42.9235 50.231C42.7365 49.9916 42.6065 49.7127 42.5434 49.4156C42.4803 49.1184 42.4857 48.8108 42.5592 48.516L44.5592 40.516C44.6877 40.0016 45.0152 39.5592 45.4698 39.2862C45.9243 39.0131 46.4707 38.9318 46.9852 39.06ZM37.4992 39C38.7687 38.9998 39.9906 39.4825 40.9173 40.3501C41.844 41.2177 42.4059 42.4053 42.4892 43.672L42.4992 44V44.65C42.4992 45.85 42.1192 47.012 41.4172 47.976L41.1372 48.326L38.8492 51H40.4992C41.009 51.0006 41.4993 51.1958 41.87 51.5457C42.2406 51.8956 42.4637 52.3739 42.4936 52.8828C42.5234 53.3917 42.3579 53.8928 42.0307 54.2837C41.7035 54.6746 41.2394 54.9258 40.7332 54.986L40.4992 55H34.4992C34.1385 55.0002 33.7844 54.9028 33.4745 54.7182C33.1646 54.5336 32.9104 54.2686 32.7389 53.9512C32.5673 53.6339 32.4847 53.2761 32.4999 52.9157C32.5151 52.5553 32.6275 52.2057 32.8252 51.904L32.9812 51.698L38.1012 45.724C38.3047 45.4855 38.4364 45.1943 38.4812 44.884L38.4992 44.65V44C38.4992 43.7348 38.3939 43.4804 38.2063 43.2929C38.0188 43.1054 37.7644 43 37.4992 43C37.234 43 36.9796 43.1054 36.7921 43.2929C36.6046 43.4804 36.4992 43.7348 36.4992 44C36.4992 44.5304 36.2885 45.0391 35.9134 45.4142C35.5384 45.7893 35.0296 46 34.4992 46C33.9688 46 33.4601 45.7893 33.085 45.4142C32.7099 45.0391 32.4992 44.5304 32.4992 44C32.4992 42.6739 33.026 41.4021 33.9637 40.4645C34.9014 39.5268 36.1731 39 37.4992 39ZM34.4992 17C42.8892 17 49.9332 22.74 51.9312 30.5C52.0638 31.0137 51.9869 31.5591 51.7174 32.0161C51.4479 32.4731 51.0079 32.8044 50.4942 32.937C49.9805 33.0696 49.4351 32.9927 48.9781 32.7232C48.5211 32.4537 48.1898 32.0137 48.0572 31.5C47.4794 29.2663 46.3585 27.21 44.7942 25.514C43.2299 23.818 41.2706 22.535 39.0908 21.7789C36.9109 21.0229 34.578 20.8174 32.2995 21.1806C30.021 21.5438 27.8676 22.4645 26.0308 23.8608C24.194 25.2571 22.7308 27.0857 21.7713 29.184C20.8118 31.2822 20.3858 33.5851 20.5311 35.8878C20.6764 38.1905 21.3886 40.4215 22.6043 42.3825C23.82 44.3435 25.5015 45.9737 27.4992 47.128C27.9345 47.4047 28.2461 47.839 28.3688 48.34C28.4916 48.841 28.416 49.3701 28.1578 49.8167C27.8996 50.2633 27.4789 50.5929 26.9835 50.7366C26.4881 50.8804 25.9563 50.8271 25.4992 50.588C22.0679 48.6067 19.3862 45.5486 17.87 41.8879C16.3538 38.2271 16.0878 34.1685 17.1134 30.3412C18.1389 26.5139 20.3986 23.132 23.542 20.7199C26.6854 18.3077 30.5369 17.0002 34.4992 17ZM34.4992 25C34.9891 25.0001 35.4619 25.1799 35.828 25.5054C36.194 25.8309 36.4279 26.2795 36.4852 26.766L36.4992 27V35C36.4991 35.4899 36.3193 35.9627 35.9938 36.3287C35.6683 36.6948 35.2197 36.9287 34.7332 36.986L34.4992 37H30.4992C29.9895 36.9994 29.4991 36.8042 29.1285 36.4543C28.7578 36.1044 28.5347 35.6261 28.5049 35.1172C28.475 34.6083 28.6406 34.1072 28.9677 33.7163C29.2949 33.3254 29.759 33.0742 30.2652 33.014L30.4992 33H32.4992V27C32.4992 26.4696 32.7099 25.9609 33.085 25.5858C33.4601 25.2107 33.9688 25 34.4992 25Z" fill="black"/>
</svg>
