<svg width="70" height="70" viewBox="0 0 70 70" fill="none" xmlns="http://www.w3.org/2000/svg">
<circle cx="35" cy="35" r="35" fill="#83A529" fill-opacity="0.43"/>
<path fill-rule="evenodd" clip-rule="evenodd" d="M29.6802 51.0598C29.2983 50.5293 28.8477 50.0518 28.3402 49.6398C27.6007 49.1018 26.7851 48.6772 25.9202 48.3798C26.1035 48.2673 26.2774 48.1402 26.4402 47.9998C27.3711 47.2963 28.0267 46.2893 28.2933 45.1534C28.5599 44.0174 28.4209 42.824 27.9002 41.7798C27.4178 40.6722 26.5727 39.7618 25.504 39.1984C24.4353 38.635 23.2067 38.4521 22.0202 38.6798C20.9629 38.9182 19.9721 39.3896 19.1202 40.0598C18.1839 40.7334 17.484 41.6852 17.1202 42.7798C16.8732 43.5986 16.8241 44.4643 16.9771 45.3058C17.1301 46.1473 17.4808 46.9404 18.0002 47.6198C18.2976 47.9558 18.6376 48.2424 19.0202 48.4798C18.5645 48.6015 18.1223 48.7691 17.7002 48.9798C16.9859 49.4174 16.3559 49.9796 15.8402 50.6398C15.1281 51.6122 14.6692 52.7467 14.5051 53.9409C14.341 55.135 14.4768 56.3512 14.9002 57.4798C14.9509 57.6325 15.0573 57.7605 15.1981 57.8384C15.339 57.9162 15.504 57.9381 15.6602 57.8998C15.8158 57.8533 15.947 57.7477 16.0255 57.6056C16.104 57.4635 16.1237 57.2962 16.0802 57.1398C15.9865 56.1534 16.1305 55.159 16.5002 54.2398C16.7602 53.5318 17.1102 52.8598 17.5402 52.2398C17.8862 51.6358 18.3402 51.0998 18.8802 50.6598C19.2216 50.3771 19.5949 50.1438 20.0002 49.9598C20.6945 49.6664 21.4098 49.4257 22.1402 49.2398C22.2383 49.2164 22.3302 49.1722 22.4096 49.11C22.489 49.0479 22.554 48.9694 22.6002 48.8798C22.7453 48.8419 22.8709 48.7511 22.9523 48.6252C23.0337 48.4994 23.0651 48.3476 23.0402 48.1998C23.0065 48.0417 22.9123 47.9031 22.7778 47.8134C22.6433 47.7237 22.4791 47.6901 22.3202 47.7198C21.7959 47.8196 21.2544 47.7776 20.7517 47.5983C20.2489 47.419 19.8031 47.1088 19.4602 46.6998C19.1728 46.2215 19.0046 45.6811 18.9698 45.1242C18.935 44.5673 19.0346 44.0101 19.2602 43.4998C19.5402 42.8958 19.9742 42.3798 20.5202 41.9998C21.1167 41.559 21.7975 41.2459 22.5202 41.0798C23.2234 40.925 23.9581 41.0103 24.607 41.3221C25.256 41.6339 25.7817 42.1541 26.1002 42.7998C26.4788 43.4532 26.6218 44.2168 26.5053 44.963C26.3888 45.7091 26.02 46.3928 25.4602 46.8998C25.2845 47.057 25.0896 47.1914 24.8802 47.2998L24.1602 47.5598C23.8202 47.5598 23.4602 48.3398 23.4402 48.3598C23.3908 48.5374 23.4135 48.7274 23.5034 48.8885C23.5933 49.0495 23.7431 49.1686 23.9202 49.2198C25.0276 49.6659 26.0241 50.3485 26.8402 51.2198C27.1802 51.5651 27.4869 51.9384 27.7602 52.3398C28.0362 52.7344 28.2829 53.1478 28.5002 53.5798C29.0493 54.625 29.2984 55.8017 29.2202 56.9798C29.2032 57.0573 29.2015 57.1373 29.2154 57.2155C29.2293 57.2936 29.2584 57.3682 29.3011 57.435C29.3874 57.5701 29.5238 57.6653 29.6802 57.6998C29.8367 57.7343 30.0005 57.7052 30.1355 57.6189C30.2705 57.5326 30.3658 57.3963 30.4002 57.2398C30.9353 55.8105 30.9984 54.2475 30.5802 52.7798C30.3756 52.1614 30.0716 51.5805 29.6802 51.0598ZM49.6002 51.0598C49.216 50.5248 48.7581 50.0468 48.2402 49.6398C47.5069 49.1036 46.6981 48.679 45.8402 48.3798C46.0002 48.2798 46.2002 48.1998 46.3602 48.0798C47.288 47.3738 47.9411 46.367 48.2075 45.232C48.4739 44.0971 48.337 42.9048 47.8202 41.8598C47.3348 40.7545 46.4892 39.8463 45.4214 39.2833C44.3535 38.7204 43.1265 38.5358 41.9402 38.7598C40.882 38.9956 39.8907 39.4673 39.0402 40.1398C38.1059 40.8153 37.4065 41.7665 37.0402 42.8598C36.7959 43.6801 36.7501 44.5468 36.9066 45.3883C37.0631 46.2298 37.4174 47.0221 37.9402 47.6998C38.2309 48.0331 38.5642 48.3198 38.9402 48.5598C38.4864 48.6872 38.0447 48.8545 37.6202 49.0598C36.9156 49.5026 36.293 50.0643 35.7802 50.7198C35.2926 51.3612 34.9266 52.0865 34.7002 52.8598C34.2133 54.3971 34.2627 56.0542 34.8402 57.5598C34.8867 57.7154 34.9923 57.8465 35.1344 57.925C35.2766 58.0036 35.4438 58.0232 35.6002 57.9798C35.7558 57.9333 35.887 57.8277 35.9655 57.6856C36.044 57.5435 36.0637 57.3762 36.0202 57.2198C35.9184 56.2332 36.0627 55.2369 36.4402 54.3198C36.6936 53.6091 37.0336 52.9424 37.4602 52.3198C37.8202 51.7198 38.2802 51.1838 38.8202 50.7398C39.1543 50.4488 39.5323 50.2126 39.9402 50.0398C40.6277 49.7466 41.3364 49.5059 42.0602 49.3198C42.1594 49.2991 42.2525 49.2559 42.3322 49.1934C42.412 49.131 42.4763 49.0511 42.5202 48.9598C42.6678 48.9262 42.7964 48.8363 42.8786 48.7093C42.9608 48.5823 42.9901 48.4281 42.9602 48.2798C42.9458 48.2023 42.9163 48.1284 42.8733 48.0623C42.8303 47.9963 42.7747 47.9393 42.7097 47.8947C42.6447 47.8502 42.5715 47.8188 42.4944 47.8025C42.4173 47.7862 42.3377 47.7853 42.2602 47.7998C41.6997 47.909 41.1197 47.856 40.5883 47.647C40.0569 47.4379 39.5961 47.0816 39.2602 46.6198C38.9728 46.1415 38.8046 45.6011 38.7698 45.0442C38.735 44.4873 38.8346 43.9301 39.0602 43.4198C39.3436 42.7905 39.8017 42.256 40.3802 41.8798C40.9767 41.439 41.6575 41.1259 42.3802 40.9598C43.0834 40.805 43.8181 40.8903 44.467 41.2021C45.116 41.5138 45.6417 42.0341 45.9602 42.6798C46.3913 43.3281 46.5777 44.1086 46.4861 44.8817C46.3945 45.6548 46.0308 46.3701 45.4602 46.8998C45.2869 47.0518 45.1002 47.1851 44.9002 47.2998C44.3402 47.5598 43.7402 47.4998 43.4602 48.3598C43.4108 48.5374 43.4335 48.7274 43.5234 48.8885C43.6133 49.0495 43.7631 49.1686 43.9402 49.2198C45.0442 49.6718 46.0402 50.3538 46.8602 51.2198C47.1936 51.5704 47.5002 51.9438 47.7802 52.3398C48.0509 52.7344 48.2909 53.1478 48.5002 53.5798C49.0562 54.623 49.3123 55.7999 49.2402 56.9798C49.2196 57.0574 49.2154 57.1385 49.2278 57.2178C49.2401 57.2972 49.2688 57.3731 49.3121 57.4408C49.3553 57.5085 49.4122 57.5665 49.479 57.6111C49.5458 57.6556 49.6211 57.6858 49.7002 57.6998C49.8564 57.7301 50.0181 57.6992 50.1521 57.6136C50.2861 57.528 50.3821 57.3942 50.4202 57.2398C50.9488 55.8084 51.0048 54.2453 50.5802 52.7798C50.3511 52.1561 50.0199 51.5749 49.6002 51.0598ZM24.7002 19.0198C23.9202 19.3798 23.1802 19.6998 22.4602 20.1198C21.9633 20.4136 21.4826 20.734 21.0202 21.0798C20.7419 21.2923 20.4748 21.5193 20.2202 21.7598C19.9939 21.9876 19.8467 22.282 19.8002 22.5998C19.7623 22.8562 19.7881 23.1181 19.8753 23.3622C19.9625 23.6064 20.1084 23.8253 20.3002 23.9998C20.8679 24.4162 21.478 24.7715 22.1202 25.0598L23.6202 25.6198C23.7896 25.6649 23.9698 25.6434 24.1237 25.5595C24.2777 25.4757 24.3935 25.3359 24.4474 25.1692C24.5013 25.0024 24.4891 24.8213 24.4133 24.6632C24.3376 24.5052 24.204 24.3822 24.0402 24.3198L23.0602 23.4998C23.0602 23.4998 22.6202 23.1998 22.3002 22.9598L22.5802 22.8198L25.4602 19.9998C25.5629 19.8967 25.626 19.7607 25.6386 19.6157C25.6511 19.4708 25.6122 19.326 25.5288 19.2068C25.4454 19.0876 25.3226 19.0015 25.1821 18.9637C25.0416 18.9258 24.8923 18.9386 24.7602 18.9998L24.7002 19.0198ZM30.7402 15.4598C30.0602 16.6198 29.3002 17.6998 28.7402 18.8798C28.4602 19.3798 28.2002 19.9198 27.9602 20.4598C27.7202 20.9998 27.4402 21.8198 27.2402 22.4598C26.8002 24.0598 26.5202 25.6798 26.0402 27.2798C25.9873 27.3664 25.9539 27.4635 25.9423 27.5643C25.9306 27.6651 25.9411 27.7673 25.9728 27.8637C26.0046 27.9601 26.057 28.0484 26.1263 28.1226C26.1956 28.1967 26.2802 28.2549 26.3742 28.2931C26.4682 28.3313 26.5694 28.3486 26.6708 28.3438C26.7722 28.339 26.8713 28.3122 26.9613 28.2653C27.0513 28.2183 27.13 28.1524 27.192 28.072C27.254 27.9916 27.2977 27.8987 27.3202 27.7998C27.8802 26.7198 28.3802 25.6198 28.8402 24.4998C29.3002 23.3798 29.6602 22.2998 30.1202 21.2198L31.8602 15.9998C31.893 15.9264 31.9108 15.8472 31.9124 15.7668C31.914 15.6865 31.8994 15.6066 31.8696 15.532C31.8397 15.4574 31.7952 15.3896 31.7386 15.3325C31.6821 15.2754 31.6146 15.2303 31.5402 15.1998C31.3994 15.1296 31.2367 15.1175 31.0871 15.1661C30.9374 15.2147 30.8129 15.3202 30.7402 15.4598ZM36.0202 24.2998C36.5345 23.9644 36.9545 23.5032 37.2402 22.9598C37.3231 22.7648 37.3538 22.5516 37.3292 22.3412C37.3047 22.1308 37.2258 21.9304 37.1002 21.7598C36.7587 21.3212 36.3463 20.9427 35.8802 20.6398C34.8962 20.1598 33.8829 19.7598 32.8402 19.4398C32.735 19.3795 32.6143 19.3515 32.4932 19.3592C32.3722 19.3668 32.256 19.4098 32.1591 19.4828C32.0623 19.5559 31.989 19.6557 31.9483 19.77C31.9076 19.8843 31.9013 20.008 31.9302 20.1258C31.9507 20.2045 31.987 20.2783 32.0368 20.3426C32.0867 20.4069 32.1491 20.4603 32.2202 20.4998L33.9602 21.8998L34.7002 22.5198L33.9402 23.3198L32.5202 24.4598C32.4427 24.5084 32.3757 24.5722 32.3234 24.6474C32.2711 24.7226 32.2345 24.8075 32.2158 24.8972C32.1971 24.9868 32.1967 25.0793 32.2147 25.1691C32.2326 25.2589 32.2685 25.3442 32.3202 25.4198C32.367 25.4967 32.4289 25.5633 32.5023 25.6154C32.5757 25.6675 32.659 25.7041 32.747 25.7228C32.8351 25.7415 32.926 25.742 33.0143 25.7243C33.1026 25.7066 33.1863 25.671 33.2602 25.6198L34.9002 24.8998C35.2949 24.7424 35.6682 24.5424 36.0202 24.2998Z" fill="black"/>
<path fill-rule="evenodd" clip-rule="evenodd" d="M40.6809 29.0789C42.6471 26.0224 43.4096 22.3452 42.8209 18.7589C42.4875 17.3055 41.8522 15.9384 40.9564 14.7462C40.0606 13.5541 38.9242 12.5636 37.6209 11.8389C35.0638 10.3578 32.0949 9.74721 29.1609 10.0989C25.6372 10.3993 22.2395 11.5525 19.2609 13.4589C17.2632 14.8814 15.7431 16.8756 14.9009 19.1789C13.9737 21.6619 14.0454 24.4077 15.1009 26.8389C16.1221 29.237 18.0064 31.1642 20.3809 32.2389C21.0676 32.5323 21.7809 32.7389 22.5209 32.8589C23.5742 33.0189 24.6342 33.1123 25.7009 33.1389C26.3062 33.1683 26.9129 33.1683 27.5209 33.1389H28.2009C28.3409 33.5789 28.5009 33.9989 28.6009 34.4389C28.8209 35.3789 29.0009 36.3189 29.1409 37.2789L29.4609 38.8989L29.7409 39.8589C29.7208 39.9241 29.7208 39.9938 29.7409 40.0589C29.8095 40.1899 29.9043 40.3053 30.0194 40.3981C30.1344 40.491 30.2673 40.5592 30.4098 40.5985C30.5523 40.6379 30.7014 40.6476 30.8478 40.627C30.9942 40.6065 31.1348 40.5561 31.2609 40.4789C31.6809 40.2469 32.0369 39.9189 32.3009 39.5189C32.6756 38.8816 32.9889 38.2149 33.2409 37.5189L33.9809 35.1989L34.8009 32.7389C36 32.6352 37.1576 32.2495 38.1795 31.6135C39.2013 30.9775 40.0584 30.109 40.6809 29.0789ZM32.3409 34.5589L31.3609 36.5589L31.2209 36.8389C30.9409 36.0389 30.6609 35.2589 30.3209 34.4789C29.9809 33.6989 29.7009 33.1189 29.3409 32.4789C28.9809 31.8389 29.3409 32.4789 29.3409 32.3589C29.3409 32.2389 29.3409 32.3589 29.2209 32.3589C29.1439 32.2755 29.0434 32.2175 28.9327 32.1924C28.822 32.1674 28.7063 32.1767 28.6009 32.2189C28.2131 32.194 27.8301 32.1201 27.4609 31.9989C26.8809 31.9989 26.3009 31.8989 25.7209 31.8589C24.7196 31.7989 23.7262 31.6789 22.7409 31.4989C22.1261 31.3695 21.5286 31.1681 20.9609 30.8989C19.0278 29.898 17.5425 28.2056 16.8009 26.1589C16.032 24.1736 16.0535 21.969 16.8609 19.9989C17.8095 17.6258 19.5957 15.6831 21.8809 14.5389C24.2643 13.3913 26.8292 12.6671 29.4609 12.3989C31.9034 12.0785 34.3844 12.548 36.5409 13.7389C37.6146 14.2867 38.5611 15.0541 39.3191 15.9912C40.0771 16.9284 40.6297 18.0145 40.9409 19.1789C41.4352 21.7605 41.1354 24.4313 40.0809 26.8389C39.6815 28.0185 38.964 29.0648 38.0076 29.8624C37.0512 30.66 35.893 31.1779 34.6609 31.3589C34.4884 31.2936 34.2972 31.299 34.1287 31.3739C33.9601 31.4488 33.828 31.5872 33.7609 31.7589L32.3409 34.5589Z" fill="black"/>
<path fill-rule="evenodd" clip-rule="evenodd" d="M56.3606 22.758C55.9874 21.2545 55.3064 19.8448 54.3606 18.618C53.4274 17.3832 52.1796 16.4218 50.7476 15.8342C49.3157 15.2467 47.7522 15.0546 46.2206 15.278C46.134 15.282 46.0493 15.3047 45.9724 15.3446C45.8954 15.3845 45.828 15.4406 45.7748 15.509C45.7215 15.5774 45.6838 15.6566 45.6641 15.741C45.6444 15.8254 45.6432 15.9131 45.6606 15.998C45.6627 16.0797 45.6819 16.16 45.7172 16.2338C45.7525 16.3075 45.8029 16.3729 45.8652 16.4258C45.9275 16.4787 46.0003 16.5178 46.0788 16.5406C46.1573 16.5634 46.2397 16.5693 46.3206 16.558C47.5792 16.5342 48.8222 16.839 49.927 17.4423C51.0318 18.0455 51.9602 18.9264 52.6206 19.998C53.2958 21.0408 53.7894 22.1904 54.0806 23.398C54.4126 24.6 54.5006 25.858 54.3406 27.098C54.1938 28.4203 53.7195 29.6852 52.9606 30.778C52.2122 31.8729 51.0995 32.6667 49.8206 33.018C49.6447 33.0609 49.4923 33.1703 49.3953 33.3232C49.2984 33.4761 49.2644 33.6606 49.3006 33.838C49.3006 33.838 49.3006 33.958 49.4206 34.018C49.265 33.9499 49.0898 33.9408 48.9279 33.9923C48.766 34.0438 48.6283 34.1525 48.5406 34.298L47.4806 35.878L47.3006 36.078C47.2688 35.6371 47.1883 35.2012 47.0606 34.778C46.9796 34.4018 46.8154 34.0485 46.58 33.7439C46.3447 33.4394 46.0442 33.1914 45.7006 33.018C45.3976 32.8911 45.0656 32.8496 44.7406 32.898C44.2806 32.898 43.6606 33.258 43.3606 33.298C42.8382 33.3946 42.3107 33.4614 41.7806 33.498L39.2806 33.618C39.2002 33.6126 39.1195 33.6234 39.0433 33.6499C38.9672 33.6764 38.8972 33.7179 38.8374 33.7721C38.7777 33.8262 38.7295 33.8918 38.6957 33.965C38.6619 34.0382 38.6431 34.1174 38.6406 34.198C38.6399 34.3578 38.6991 34.5121 38.8064 34.6306C38.9137 34.749 39.0615 34.823 39.2206 34.838L43.4806 35.338C45.1406 35.338 44.3806 33.478 45.4806 38.478C45.4806 38.678 46.3606 39.698 47.2406 38.918C47.5406 38.638 48.2806 37.838 48.3206 37.778L48.9406 36.798L49.8206 34.978C49.8845 34.8761 49.9184 34.7583 49.9184 34.638C49.9184 34.5177 49.8845 34.3999 49.8206 34.298C49.9581 34.3354 50.1031 34.3354 50.2406 34.298C51.8996 33.9924 53.3956 33.1062 54.4606 31.798C55.5404 30.5218 56.2831 28.9953 56.6206 27.358C56.8566 25.8234 56.7681 24.2563 56.3606 22.758Z" fill="black"/>
</svg>
