<svg width="24" height="24" viewBox="0 0 24 24" fill="none" xmlns="http://www.w3.org/2000/svg">
<mask id="path-1-inside-1_350_1552" fill="white">
<path fill-rule="evenodd" clip-rule="evenodd" d="M12.6 11.503L16.491 15.394L15.643 16.243L11.4 12V6H12.6V11.503ZM12 22C6.477 22 2 17.523 2 12C2 6.477 6.477 2 12 2C17.523 2 22 6.477 22 12C22 17.523 17.523 22 12 22ZM12 20.8C14.3339 20.8 16.5722 19.8729 18.2225 18.2225C19.8729 16.5722 20.8 14.3339 20.8 12C20.8 9.66609 19.8729 7.42778 18.2225 5.77746C16.5722 4.12714 14.3339 3.2 12 3.2C9.66609 3.2 7.42778 4.12714 5.77746 5.77746C4.12714 7.42778 3.2 9.66609 3.2 12C3.2 14.3339 4.12714 16.5722 5.77746 18.2225C7.42778 19.8729 9.66609 20.8 12 20.8Z"/>
</mask>
<path fill-rule="evenodd" clip-rule="evenodd" d="M12.6 11.503L16.491 15.394L15.643 16.243L11.4 12V6H12.6V11.503ZM12 22C6.477 22 2 17.523 2 12C2 6.477 6.477 2 12 2C17.523 2 22 6.477 22 12C22 17.523 17.523 22 12 22ZM12 20.8C14.3339 20.8 16.5722 19.8729 18.2225 18.2225C19.8729 16.5722 20.8 14.3339 20.8 12C20.8 9.66609 19.8729 7.42778 18.2225 5.77746C16.5722 4.12714 14.3339 3.2 12 3.2C9.66609 3.2 7.42778 4.12714 5.77746 5.77746C4.12714 7.42778 3.2 9.66609 3.2 12C3.2 14.3339 4.12714 16.5722 5.77746 18.2225C7.42778 19.8729 9.66609 20.8 12 20.8Z" fill="#8F8F8F"/>
<path d="M12.6 11.503H9.6V12.7456L10.4787 13.6243L12.6 11.503ZM16.491 15.394L18.6136 17.5141L20.7324 15.3927L18.6123 13.2727L16.491 15.394ZM15.643 16.243L13.5217 18.3643L15.6443 20.4869L17.7656 18.3631L15.643 16.243ZM11.4 12H8.4V13.2426L9.27868 14.1213L11.4 12ZM11.4 6V3H8.4V6H11.4ZM12.6 6H15.6V3H12.6V6ZM12 3.2V0.2V3.2ZM3.2 12H0.2H3.2ZM12.6 11.503L10.4787 13.6243L14.3697 17.5153L16.491 15.394L18.6123 13.2727L14.7213 9.38168L12.6 11.503ZM16.491 15.394L14.3684 13.2739L13.5204 14.1229L15.643 16.243L17.7656 18.3631L18.6136 17.5141L16.491 15.394ZM15.643 16.243L17.7643 14.1217L13.5213 9.87868L11.4 12L9.27868 14.1213L13.5217 18.3643L15.643 16.243ZM11.4 12H14.4V6H11.4H8.4V12H11.4ZM11.4 6V9H12.6V6V3H11.4V6ZM12.6 6H9.6V11.503H12.6H15.6V6H12.6ZM12 22V19C8.13385 19 5 15.8661 5 12H2H-1C-1 19.1799 4.82015 25 12 25V22ZM2 12H5C5 8.13385 8.13385 5 12 5V2V-1C4.82015 -1 -1 4.82015 -1 12H2ZM12 2V5C15.8661 5 19 8.13385 19 12H22H25C25 4.82015 19.1799 -1 12 -1V2ZM22 12H19C19 15.8661 15.8661 19 12 19V22V25C19.1799 25 25 19.1799 25 12H22ZM12 20.8V23.8C15.1296 23.8 18.1309 22.5568 20.3439 20.3439L18.2225 18.2225L16.1012 16.1012C15.0135 17.1889 13.5383 17.8 12 17.8V20.8ZM18.2225 18.2225L20.3439 20.3439C22.5568 18.1309 23.8 15.1296 23.8 12H20.8H17.8C17.8 13.5383 17.1889 15.0135 16.1012 16.1012L18.2225 18.2225ZM20.8 12H23.8C23.8 8.87045 22.5568 5.86907 20.3439 3.65614L18.2225 5.77746L16.1012 7.89878C17.1889 8.98649 17.8 10.4617 17.8 12H20.8ZM18.2225 5.77746L20.3439 3.65614C18.1309 1.44321 15.1296 0.2 12 0.2V3.2V6.2C13.5383 6.2 15.0135 6.81107 16.1012 7.89878L18.2225 5.77746ZM12 3.2V0.2C8.87045 0.2 5.86907 1.44321 3.65614 3.65614L5.77746 5.77746L7.89878 7.89878C8.98649 6.81107 10.4617 6.2 12 6.2V3.2ZM5.77746 5.77746L3.65614 3.65614C1.44321 5.86907 0.2 8.87045 0.2 12H3.2H6.2C6.2 10.4617 6.81107 8.98649 7.89878 7.89878L5.77746 5.77746ZM3.2 12H0.2C0.2 15.1296 1.44321 18.1309 3.65614 20.3439L5.77746 18.2225L7.89878 16.1012C6.81107 15.0135 6.2 13.5383 6.2 12H3.2ZM5.77746 18.2225L3.65614 20.3439C5.86907 22.5568 8.87045 23.8 12 23.8V20.8V17.8C10.4617 17.8 8.98649 17.1889 7.89878 16.1012L5.77746 18.2225Z" fill="#8F8F8F" mask="url(#path-1-inside-1_350_1552)"/>
</svg>
